<svg width="105" height="94" viewBox="0 0 105 94" fill="none" xmlns="http://www.w3.org/2000/svg">
<path d="M23.2891 92.7215C27.7975 93.8608 38.5506 89.1783 38.5506 89.1783C38.5506 89.1783 38.5506 90.1239 43.873 92.7215C49.1955 95.3191 59.5956 87.7598 61.9124 81.1462C64.2292 74.5325 63.2957 70.5164 67.4626 68.1524C71.6294 65.7883 76.7128 61.778 78.3295 56.3435C79.9461 50.909 79.7184 30.3559 78.3295 24.215C76.9405 18.0742 72.7793 4.374 66.3013 2.95557C59.8233 1.53713 60.0396 3.90119 55.4344 2.2435C50.8292 0.585808 50.8064 3.18912 45.0286 2.2435C39.2507 1.29787 29.7614 2.95557 29.7614 2.95557C29.7614 2.95557 22.1335 4.58477 18.4334 8.86287C14.7333 13.141 8.02763 31.068 9.64429 35.346C11.2609 39.6241 12.4222 36.998 13.3444 41.9597C14.2666 46.9214 15.1944 52.5895 16.35 55.6314C17.5056 58.6734 18.6611 63.43 18.8945 64.3984C19.1279 65.3668 17.0445 71.2342 17.0445 76.2073C17.0445 81.1804 19.8224 79.9898 18.8945 84.9515C17.9667 89.9131 17.739 91.3031 23.2891 92.7215Z" fill="#352802"/>
<path d="M23.2891 91.0348C27.7975 92.1741 38.5506 87.4915 38.5506 87.4915C38.5506 87.4915 38.5506 88.4371 43.873 91.0348C49.1955 93.6324 59.5956 86.0731 61.9124 79.4594C64.2292 72.8457 63.2957 68.8297 67.4626 66.4656C71.6294 64.1016 76.7128 60.0855 78.3295 54.6795C79.9461 49.2735 79.7184 28.6919 78.3295 22.551C76.9405 16.4102 72.7793 2.68154 66.3013 1.2688C59.8233 -0.143942 60.0624 2.20873 55.4344 0.562428C50.8064 -1.08387 50.8064 1.50236 45.0286 0.562428C39.2507 -0.3775 29.7614 1.2688 29.7614 1.2688C29.7614 1.2688 22.1335 2.92079 18.4334 7.17041C14.7333 11.42 8.02763 29.3869 9.64429 33.6308C11.2609 37.8747 12.4222 35.2828 13.3444 40.2445C14.2666 45.2062 15.1944 50.8742 16.35 53.9162C17.5056 56.9581 18.6611 61.7147 18.8945 62.6603C19.1279 63.606 17.0445 69.4962 17.0445 74.4692C17.0445 79.4423 19.8224 78.2517 18.8945 83.2077C17.9667 88.1637 17.739 89.6163 23.2891 91.0348Z" fill="#F2D78F"/>
<path d="M12.8833 39.8065C11.9554 36.0297 10.8169 29.8831 13.8055 24.6879C16.794 19.4926 20.0672 12.1555 20.0672 12.1555L26.0784 9.55786L28.8563 2.72203L25.6173 1.30359L20.995 4.15185C20.995 4.15185 11.278 8.16791 7.81132 9.58635C4.34461 11.0048 -0.99491 10.0421 0.160658 17.3621C1.31623 24.6822 -1.456 25.3942 1.78301 32.2472C5.02201 39.1001 2.70519 48.7671 1.54962 51.3818C0.394049 53.9965 5.01632 51.3818 5.01632 51.3818L12.8833 39.8065Z" fill="#42210B"/>
<path d="M70.2348 14.7645C67.2292 10.9877 64.6847 8.39005 64.9181 6.4988C65.1514 4.60755 66.0565 3.65053 69.5403 2.95556C73.0241 2.26058 83.4185 7.67798 83.4185 7.67798C83.4185 7.67798 96.3689 12.4061 99.8356 14.7645C103.302 17.1228 106.775 17.3621 103.308 26.3398C99.8413 35.3176 89.8908 44.056 88.9687 49.257C88.0465 54.4579 86.8852 56.0928 86.8852 56.0928C86.8852 56.0928 85.7467 60.0804 83.1851 55.1529C80.6235 50.2254 75.0905 49.257 77.4187 42.8769C79.7469 36.4967 75.7849 25.6619 73.9349 20.4382C72.0849 15.2145 70.2348 14.7645 70.2348 14.7645Z" fill="#42210B"/>
<path d="M28.3782 80.6734C29.9948 82.3311 33.0004 82.7982 36.4728 79.4942C39.9452 76.1902 40.634 70.2829 40.634 70.2829C40.634 70.2829 32.7727 61.5501 29.9948 64.3984C27.2169 67.2466 23.9836 63.9256 23.9836 63.9256L18.8945 69.3601V73.6097C18.8945 78.3378 23.0557 80.6962 25.1562 81.881C28.1448 79.2549 28.3782 80.6734 28.3782 80.6734Z" fill="black"/>
<path d="M27.6174 75.6815C28.0636 76.1387 28.8932 76.2676 29.8515 75.3562C30.8099 74.4449 31 72.8154 31 72.8154C31 72.8154 28.8303 70.4066 28.0636 71.1923C27.2969 71.9779 26.4046 71.0619 26.4046 71.0619L25 72.5609V73.7331C25 75.0373 26.1485 75.6878 26.7282 76.0146C27.553 75.2902 27.6174 75.6815 27.6174 75.6815Z" fill="#42210B"/>
<path d="M52.9109 75.0693C54.5276 76.7269 56.5169 71.5401 59.9893 68.2361C63.4616 64.9321 68 60.5348 68 60.5348C68 60.5348 68.5 60.5348 72.5 54.0348C63 53.1403 47.5 52.6675 47.5 52.6675L32.4109 53.1403L56.5 59.5348C56.5 64.2629 46.5721 69.4381 48.6726 70.6229C51.6612 67.9968 52.9109 75.0693 52.9109 75.0693Z" fill="#F5E7DE"/>
<path d="M15.5417 38.0348C17.6251 44.8706 22.7085 45.1213 24.0804 45.8334C25.4522 46.5454 26.3915 40.1368 22.9419 38.0348C19.4922 35.9328 18.7807 36.1436 15.5417 37.8012C12.3027 39.4589 15.5417 38.0348 15.5417 38.0348Z" fill="black"/>
<path d="M16.1165 37.8364C17.9319 43.8015 22.3614 44.0202 23.5568 44.6416C24.7522 45.263 25.5706 39.6707 22.5647 37.8364C19.5589 36.0021 18.9388 36.186 16.1165 37.6326C13.2942 39.0791 16.1165 37.8364 16.1165 37.8364Z" fill="#F4F4F4"/>
<path d="M64.844 38.3652C59.9884 45.2865 54.3244 43.6117 52.5369 43.8909C50.7495 44.17 52.1328 36.6278 56.7323 35.5568C61.3318 34.4859 62.0035 34.9872 64.9294 38.1089C67.8553 41.2306 64.844 38.3652 64.844 38.3652Z" fill="black"/>
<path d="M64.6043 38.4114C60.0569 44.8729 54.7526 43.3094 53.0786 43.5699C51.4047 43.8305 52.7001 36.7894 57.0076 35.7896C61.3151 34.7898 61.9441 35.2578 64.6843 38.1721C67.4244 41.0864 64.6043 38.4114 64.6043 38.4114Z" fill="#FFFDFD"/>
<path d="M21.623 40.099L23.3879 41.3372C23.1896 41.8097 22.857 42.2135 22.4312 42.4986C22.0054 42.7836 21.5053 42.9374 20.9929 42.9407C20.4643 42.9509 19.9447 42.8035 19.5001 42.5173C19.0556 42.231 18.7064 41.8189 18.497 41.3334C18.2876 40.8479 18.2275 40.3111 18.3244 39.7913C18.4212 39.2716 18.6706 38.7924 19.0408 38.415C19.411 38.0375 19.8852 37.7788 20.403 37.6718C20.9208 37.5648 21.4587 37.6145 21.9481 37.8144C22.4376 38.0143 22.8564 38.3554 23.1513 38.7942C23.4462 39.2331 23.6037 39.7498 23.6038 40.2785L21.623 40.099Z" fill="black"/>
<path d="M58.2066 39.1001L55.1327 40.473C55.3869 41.0802 55.8138 41.5993 56.3602 41.9659C56.9067 42.3325 57.5487 42.5304 58.2066 42.5351C58.8847 42.5475 59.5511 42.3577 60.1209 41.9898C60.6908 41.6219 61.1383 41.0925 61.4064 40.4692C61.6745 39.8458 61.7512 39.1567 61.6265 38.4896C61.5019 37.8225 61.1817 37.2077 60.7066 36.7234C60.2315 36.2391 59.6231 35.9073 58.9589 35.7702C58.2948 35.6332 57.6048 35.6971 56.9771 35.9539C56.3493 36.2106 55.8122 36.6486 55.434 37.2119C55.0559 37.7753 54.8539 38.4385 54.8538 39.1172L58.2066 39.1001Z" fill="black"/>
</svg>
