<svg width="160" height="94" viewBox="0 0 160 94" fill="none" xmlns="http://www.w3.org/2000/svg">
<g clip-path="url(#clip0_112_23)">
<path d="M155.171 63.5603C154.408 62.7439 153.703 61.875 153.061 60.9599C151.938 59.2436 150.949 57.4426 150.102 55.5731C149.272 53.5612 149.912 51.7405 151.386 50.1612C152.4 49.1666 153.299 48.0598 154.066 46.8617C155.296 44.7039 155.471 42.2796 155.271 39.8201C155.057 37.7991 154.494 35.8313 153.606 34.0058C151.941 30.2989 151.606 26.2852 151.211 22.3017C151.071 20.8783 151.046 19.4448 150.921 18.0214C150.834 17.701 150.691 17.3981 150.501 17.1261C150.168 17.2479 149.858 17.4285 149.587 17.6593C148.497 19.0324 148.442 20.7073 148.352 22.357C148.172 25.747 148.127 29.1572 147.782 32.5321C147.527 35.0168 146.742 37.4461 146.437 39.9308C145.702 45.9262 146.222 51.7153 149.532 57.0317C150.711 58.9229 151.616 61.0303 151.001 63.3591C149.575 68.8575 148.564 74.4564 147.977 80.108C147.642 83.2264 147.672 86.3247 148.577 89.3626C148.599 89.6272 148.57 89.8937 148.492 90.1473C148.237 90.0668 147.992 90.0014 147.737 89.9008C147.622 89.8606 147.542 89.7348 147.432 89.6745C147.197 89.5487 146.932 89.4381 146.707 89.3224C146.582 89.594 146.342 89.8706 146.347 90.1372C146.364 90.9914 146.44 91.8434 146.572 92.6873C146.742 93.7837 146.657 93.9195 145.572 93.9145C143.458 93.9145 141.338 93.9145 139.223 93.9145C138.858 93.9145 138.498 93.8541 137.943 93.8038C139.148 91.9026 139.553 89.7348 141.378 88.412C141.512 88.27 141.615 88.1013 141.681 87.9168C141.746 87.7323 141.772 87.536 141.758 87.3407C141.673 86.0987 141.941 84.8581 142.533 83.7646C143.623 81.5968 143.693 79.2378 143.648 76.8739C143.618 75.0934 143.473 73.3229 143.368 71.5424C143.332 71.3098 143.282 71.0797 143.218 70.8533C142.878 71.9398 142.633 72.7697 142.363 73.5945C141.764 75.2773 140.771 76.7903 139.468 78.0056C139.122 78.3497 138.897 78.7984 138.828 79.2831C138.623 81.798 138.533 84.2675 137.798 86.712C137.474 87.7934 137.713 89.0458 137.703 90.2328C137.742 90.6476 137.645 91.0638 137.429 91.4191C137.213 91.7745 136.888 92.0499 136.504 92.2044C136.307 92.281 136.129 92.3974 135.979 92.5464C134.979 93.7083 133.554 93.7636 132.189 93.8743C131.155 93.9547 130.115 93.8743 129.095 93.8743C128.82 92.4257 129.305 91.6511 130.595 91.3594C130.929 91.3311 131.24 91.1732 131.461 90.9189C131.682 90.6646 131.796 90.3338 131.779 89.9964C131.917 87.1349 132.421 84.3033 133.279 81.5716C133.334 81.1227 133.318 80.6679 133.234 80.2237L132.839 80.1834C132.687 80.4326 132.567 80.6994 132.479 80.9781C131.925 84.3732 130.794 87.6468 129.135 90.6553C128.32 92.1642 127.225 93.2858 125.31 92.9589C125.01 92.9086 124.491 92.7174 124.491 92.5816C124.539 92.2224 124.667 91.8787 124.865 91.5757C124.91 91.4801 125.065 91.4349 125.175 91.3695C126.167 90.8502 126.961 90.0176 127.436 88.9998C127.911 87.982 128.041 86.8354 127.805 85.7362C127.6 84.514 127.38 83.2968 127.245 82.0645C127.17 81.3704 126.745 81.3956 126.245 81.3604C122.376 81.0787 118.496 80.8574 114.637 80.455C112.997 80.274 111.418 79.5799 109.788 79.2177C108.593 78.9512 107.373 78.8304 106.158 78.6695C105.594 78.5991 105.304 78.9059 105.159 79.4642C104.624 81.8131 104.014 84.1519 103.529 86.5058C103.382 87.5425 103.299 88.5873 103.279 89.6342C103.282 90.0812 103.182 90.5228 102.987 90.9243C102.792 91.3257 102.507 91.6762 102.154 91.9479C102.029 92.0447 101.918 92.1581 101.824 92.2849C101.494 92.6923 101.219 93.3814 100.824 93.4518C99.8395 93.5559 98.8476 93.5745 97.8597 93.5071L97.6947 93.2154C97.906 92.8307 98.1666 92.4756 98.4696 92.1591C100.444 90.5396 100.684 88.3517 100.499 86.0279C100.42 85.6987 100.292 85.3833 100.119 85.0924H99.7944C99.5844 85.6356 99.3345 86.1637 99.1695 86.722C98.9526 87.3866 98.7986 88.0703 98.7096 88.7641C98.5046 90.9218 97.0148 92.1843 95.2901 92.7526C93.8803 93.2154 92.1956 92.8532 90.6358 92.8231C90.541 92.8066 90.4514 92.768 90.3741 92.7103C90.2968 92.6527 90.2341 92.5776 90.1909 92.4911C89.551 91.113 88.1562 91.2387 87.0214 90.8112C86.2913 90.4989 85.5945 90.113 84.9417 89.6594C84.3268 89.2771 83.7419 88.8446 83.162 88.412C82.8878 88.1931 82.6644 87.9168 82.5071 87.6022C84.6218 87.6676 86.3365 86.7321 88.1062 85.9223C89.1511 85.4445 90.2659 85.1276 91.3807 84.7303C91.2413 84.0325 91.161 83.3242 91.1408 82.6128C91.1448 82.0481 91.3618 81.506 91.7478 81.0961C92.1339 80.6863 92.6602 80.4391 93.2204 80.4047C94.3253 80.2639 94.9902 80.7417 95.5201 81.9137C95.792 82.3904 96.1084 82.8401 96.4649 83.2566C97.1248 81.3252 96.4649 80.1583 94.6952 79.9319C92.8364 79.7427 91.0448 79.1304 89.456 78.1414C89.2235 77.9912 88.943 77.9354 88.6711 77.9855C86.1851 78.7414 83.5837 79.0396 80.9923 78.8657C80.7957 78.8904 80.6017 78.9324 80.4124 78.9914C80.7574 79.9068 81.0773 80.7769 81.4123 81.637C81.5023 81.8684 81.7522 82.0746 81.7622 82.3009C81.8722 84.9667 81.9872 87.6324 80.2075 89.9259C79.3376 91.0476 78.5827 92.2547 77.7479 93.4065C77.6065 93.6255 77.386 93.7807 77.1329 93.8391C75.9981 93.8793 74.8583 93.8743 73.7235 93.8391C73.4835 93.8391 73.2536 93.6177 73.0186 93.5021C73.1133 93.245 73.252 93.0067 73.4285 92.7979C77.9678 89.1765 77.9628 84.2826 77.2229 79.1775C77.1379 78.5689 76.833 78.4784 76.2931 78.76C75.8202 79.0346 75.271 79.1459 74.7294 79.0769C74.1877 79.0079 73.6834 78.7623 73.2935 78.3778C72.4627 77.6038 71.729 76.7306 71.1089 75.7774C70.579 74.9777 70.9089 74.7111 71.7938 74.349C72.7321 73.9284 73.6085 73.38 74.3984 72.7194C76.1731 71.3362 76.898 69.5657 76.1081 67.3376C76.079 67.2464 76.0622 67.1516 76.0581 67.0559C75.9281 65.4665 75.4482 64.2594 73.9334 63.2686C71.6888 61.7898 71.5438 58.5155 73.4785 56.4734C73.6635 57.0971 73.8435 57.59 73.9484 58.1031C74.0767 58.7912 74.4163 59.4215 74.9194 59.9052C75.4226 60.3889 76.0639 60.7015 76.753 60.799C76.868 60.0948 76.988 59.3907 77.108 58.6865C77.1073 58.4963 77.1394 58.3074 77.2029 58.1282C77.5429 57.5599 77.9228 57.0116 78.2878 56.4584C78.6777 56.8708 79.0926 57.2631 79.4526 57.7007C80.0053 58.4693 80.5959 59.2096 81.2223 59.9188C81.3984 60.0453 81.6033 60.1255 81.8181 60.1518C82.0329 60.1782 82.2509 60.1499 82.4521 60.0697C86.3416 57.5692 90.8748 56.2716 95.4901 56.3376C99.5544 56.393 103.424 55.4122 107.353 54.5923C113.827 53.2393 120.351 52.3893 127.015 52.7967C130.98 53.0382 134.869 53.6518 138.303 55.895C138.545 56.0207 138.796 56.1283 139.053 56.2169C139.065 56.0204 139.112 55.8277 139.193 55.6486C140.488 53.9485 139.543 52.5151 138.743 51.0062C138.353 50.2769 138.243 49.4067 137.958 48.6171C137.762 48.1044 137.52 47.6111 137.234 47.1434C136.939 46.6404 136.589 46.1374 136.234 45.6646C136.102 45.4194 135.923 45.2025 135.709 45.0258C134.429 44.2362 133.099 43.5169 131.854 42.7021C131.065 42.1992 130.355 41.5906 129.325 41.827C129.215 41.8521 129.01 41.7113 128.94 41.5956C128.3 40.5897 127.31 40.5595 126.265 40.5293C125.794 40.4965 125.348 40.2991 125.005 39.971C124.735 39.7253 124.411 39.5461 124.06 39.4475C123.708 39.3489 123.339 39.3335 122.981 39.4026C122.796 39.4026 122.601 39.5385 122.426 39.5083C121.791 39.3876 121.056 38.9449 120.551 39.1411C119.821 39.4177 119.381 39.4429 118.796 38.9198C118.621 38.7639 118.057 38.8745 117.797 39.0405C116.767 39.6441 115.772 39.8754 114.692 39.1512C114.421 38.9877 114.113 38.8976 113.797 38.8896C110.753 38.7186 107.703 38.4973 104.649 38.442C102.614 38.4017 100.579 38.3816 98.6196 39.3222C97.8997 39.6692 96.7999 39.4882 95.965 39.2417C95.0646 38.9525 94.1017 38.9229 93.1854 39.1562C92.7948 39.2668 92.3813 39.2668 91.9906 39.1562C90.5745 38.6691 89.0347 38.6886 87.6313 39.2115C86.7015 39.5284 85.8416 39.7698 84.8367 39.1562C84.3668 38.8645 83.5219 39.2065 82.8371 39.2165C82.4972 39.2243 82.1588 39.1715 81.8372 39.0606C81.4623 38.9148 81.1523 38.5577 80.7724 38.4822C79.4326 38.1754 78.0728 37.9792 76.733 37.6624C76.3483 37.6013 76.0023 37.3921 75.7682 37.0789C75.557 36.6142 75.2294 36.2127 74.8175 35.9137C74.4056 35.6148 73.9235 35.4288 73.4185 35.3739C73.1705 35.3499 72.9375 35.2434 72.7564 35.0712C72.5753 34.8991 72.4565 34.671 72.4187 34.4233C72.0137 32.8791 71.0789 31.9587 69.3842 31.9637C68.6793 31.9637 67.2645 30.2939 67.3445 29.5897C67.4841 28.1826 67.1591 26.7685 66.4196 25.566C65.9197 24.6707 65.4198 24.6405 64.8899 25.5006C64.4799 26.1645 64.235 26.934 63.855 27.6231C63.6305 27.948 63.3724 28.2481 63.0851 28.5184C62.8104 28.2882 62.5484 28.043 62.3003 27.7841C61.8503 27.2811 61.4604 26.6725 60.9855 26.1695C60.2956 25.4503 59.7857 25.566 59.4857 26.5467C59.3171 27.2231 59.2084 27.9132 59.1608 28.6089C59.1108 29.137 58.9858 29.5193 58.3859 29.6149C58.0779 29.6835 57.7913 29.8268 57.551 30.0323C55.4613 31.7625 53.5516 33.6135 53.7866 36.6816C53.7478 36.982 53.6147 37.2622 53.4067 37.4813C52.1519 39.0757 50.8471 40.6249 49.6272 42.2444C48.6274 43.5974 48.6274 44.9353 49.6272 45.7652C50.2516 46.2063 50.7989 46.7485 51.247 47.3697C51.8019 48.2298 53.1217 48.265 53.9666 47.5357C54.8114 46.8064 55.4663 46.3889 56.6562 46.8064C57.2561 47.0176 58.1559 46.5448 58.8608 46.228C59.7257 45.8306 60.5555 45.554 61.4954 45.896C61.854 45.9763 62.1836 46.1544 62.4482 46.4109C62.7127 46.6673 62.902 46.9921 62.9952 47.3496C63.1128 47.7437 63.3443 48.0939 63.6601 48.3555C64.4699 49.0496 64.7749 50.0002 65.1148 50.9458C65.4248 51.8009 65.7581 52.6391 66.1147 53.4607C66.3946 54.1598 66.7246 54.8338 67.0145 55.5279C67.1183 55.8721 67.247 56.2084 67.3995 56.5338C68.1394 57.7158 67.7744 58.9933 67.6844 60.2206C67.6594 60.5576 67.1545 60.9147 66.7996 61.1511C66.3895 61.4243 66.0449 61.7858 65.7908 62.2094C65.5366 62.633 65.3791 63.1082 65.3298 63.6005C65.1704 64.4433 65.0603 65.2948 64.9998 66.1506C64.9349 68.8767 66.0547 71.8593 65.0598 74.3339C64.23 76.391 65.7397 78.4884 65.6247 80.6311C65.4848 83.3572 63.3801 88.3919 63.3501 91.123C63.3501 92.2648 61.6554 89.7348 60.6005 89.2671C59.9056 88.9603 59.3207 89.5588 59.2357 90.5698C59.2134 91.1291 59.0844 91.6789 58.8558 92.1893C58.6552 92.5995 58.3696 92.9616 58.0181 93.2513C57.6667 93.541 57.2576 93.7516 56.8185 93.8689C56.3793 93.9861 55.9203 94.0073 55.4724 93.931C55.0244 93.8547 54.5979 93.6827 54.2215 93.4266C54.7699 93.3064 55.3094 93.1484 55.8363 92.9538C56.4362 92.6923 56.9861 92.3301 57.561 92.0133C57.0238 91.6241 56.5065 91.2078 56.0112 90.7659C55.5731 90.2961 55.1608 89.8025 54.7764 89.2872C54.71 89.3059 54.6519 89.3466 54.6115 89.4029C53.9416 90.605 53.6666 90.7106 52.3718 90.2277C49.8722 89.3023 47.6476 90.5195 46.9177 93.15C46.8686 93.2805 46.7889 93.3972 46.6853 93.4901C46.5817 93.5829 46.4573 93.6491 46.3228 93.6831C45.8693 93.6568 45.4201 93.5809 44.983 93.4568C45.0273 93.1389 45.1165 92.8289 45.2479 92.5364C45.7479 91.7719 45.6679 90.9621 44.998 90.5597C44.3281 90.1573 43.5882 90.4591 43.0733 91.2337C42.6833 91.8171 42.1734 92.5716 41.5735 92.7426C39.1839 93.3512 36.8092 94.2867 34.2596 93.7485C33.9897 93.6932 33.5848 93.5322 33.5398 93.3512C33.5256 93.2041 33.5489 93.0558 33.6075 92.9202C33.6661 92.7847 33.7581 92.6665 33.8747 92.5766C34.3868 92.3424 34.9343 92.1962 35.4945 92.1441C35.8747 92.1559 36.2516 92.0697 36.5894 91.8936C36.9271 91.7176 37.2145 91.4575 37.4242 91.1381C37.8441 90.4692 37.7391 89.8757 37.0342 89.5688C36.2429 89.2791 35.5467 88.7748 35.0226 88.1117C34.4986 87.4486 34.167 86.6526 34.0647 85.8117C33.9797 85.1578 33.5648 85.1628 33.0948 85.2182C31.745 85.3942 30.8652 84.685 30.2053 83.6338C30.0311 83.3113 29.9728 82.9382 30.0403 82.5776C30.2003 81.7778 30.5152 81.0133 30.6852 80.2186C30.8374 79.3066 31.2076 78.4455 31.7641 77.7095C32.3206 76.9734 33.0467 76.3846 33.8797 75.9937C34.5496 75.6718 34.6046 75.2996 34.4596 74.6407C34.0097 72.6288 33.6597 70.6169 34.3096 68.6051C34.4358 68.1586 34.6595 67.7462 34.9645 67.3979C35.6444 66.7089 36.2843 66.9302 37.2792 68.0971C37.3392 68.0971 37.4092 68.1222 37.4591 68.0971C38.9589 67.2973 39.7688 67.5941 40.0037 69.2539C40.1053 70.4487 40.0192 71.6521 39.7488 72.82C39.5466 73.8183 39.2278 74.7891 38.7989 75.712C38.6582 75.9568 38.6043 76.2424 38.6461 76.5221C38.6879 76.8017 38.8228 77.0588 39.0289 77.2511C39.4038 77.6686 39.6738 78.3979 40.0987 78.4985C40.5237 78.5991 41.0986 78.0559 41.6335 77.8798C46.4927 76.2854 51.202 76.2603 55.4913 79.4692C56.1416 80.0734 56.7233 80.7481 57.2261 81.4811C57.3696 81.6683 57.5031 81.8631 57.626 82.0645L57.9759 82.0243C58.0309 80.5154 58.1809 79.0367 58.1059 77.5479C58.0609 76.6576 57.636 75.7925 57.421 74.9073C56.9024 72.6053 56.8362 70.2235 57.2261 67.8959C57.346 67.076 57.1711 66.8899 56.3012 66.6334C54.6869 66.1599 52.978 66.1166 51.342 66.5077C50.7221 66.6535 49.9122 66.2009 49.2523 65.884C48.6974 65.6174 48.2875 64.9736 47.7175 64.8026C45.5179 64.1387 44.3581 62.4236 43.2782 60.6078C43.0115 60.1015 42.619 59.6732 42.1389 59.3647C41.6588 59.0562 41.1075 58.878 40.5387 58.8475C38.469 58.6865 36.3143 58.1835 34.4946 59.5969C32.4299 61.2064 30.4402 62.9165 28.4955 64.6618C27.1158 65.8941 26.2759 67.5337 25.306 69.103C23.243 72.4385 19.9556 74.8206 16.1575 75.7322C14.1134 76.221 12.2945 77.3931 10.9983 79.0568C9.75348 80.6612 8.21872 81.7829 6.11904 82.0344C4.52929 82.2255 3.1995 81.8131 2.27465 80.5255C1.51545 79.3955 0.825925 78.2197 0.209968 77.0047C0.0405687 76.6772 -0.0225645 76.3046 0.0294462 75.9392C0.0814568 75.5739 0.245995 75.2341 0.499922 74.9676C2.19966 72.991 2.88955 70.5063 3.8644 68.1826C4.6786 66.1816 5.39108 64.1403 5.99906 62.0665C6.21641 61.2799 6.28258 60.4587 6.19403 59.6472C5.98407 57.3436 6.01406 55.1205 7.58881 53.2293C7.96229 52.802 8.395 52.431 8.87361 52.1278C9.43203 51.7132 9.82089 51.1079 9.96724 50.4254C10.1136 49.743 10.0074 49.0302 9.66849 48.4209C9.28855 47.8525 8.40369 47.7821 7.63381 48.2901C6.13404 49.2709 4.57928 49.2458 2.95454 48.612C4.15702 48.2837 5.33755 47.8788 6.48899 47.3999C7.80184 46.7207 9.06932 45.9563 10.2834 45.1114C10.7833 44.7794 11.1982 44.6084 11.7382 44.9705C11.9938 45.1576 12.2977 45.2666 12.6133 45.2844C12.9289 45.3023 13.243 45.2282 13.5179 45.0711C15.2276 44.2462 16.4724 44.4776 17.7822 45.8809C18.2821 46.4241 18.6471 46.5599 19.282 46.0268C23.4663 42.3702 27.4957 38.5225 30.5652 33.8046C33.4398 29.3684 36.0644 24.7763 38.8239 20.2596C40.1537 18.0717 41.3235 15.7731 43.3232 14.0781C46.0078 11.8299 49.0923 10.3712 52.3218 9.13393C57.2213 7.33839 62.2851 6.03439 67.4395 5.24095C72.4387 4.39596 77.4379 3.78234 82.4371 3.19889C84.0735 3.03231 85.724 3.06947 87.3513 3.30955C90.5209 3.73707 93.6554 3.37996 96.8049 3.20392C100.994 2.96753 105.189 2.70095 109.383 2.50479C112.85 2.39512 116.297 1.93169 119.671 1.12163C123.192 0.172999 126.845 -0.173848 130.48 0.0955693C131.035 0.135807 131.569 0.41747 132.124 0.482856C133.124 0.603569 134.224 0.890261 135.184 0.673984C140.288 -0.472786 144.657 1.04115 148.557 4.25513C151.426 6.61909 152.761 9.85318 153.106 13.4846C153.306 15.5669 153.261 17.6693 153.331 19.7667C153.536 25.4603 155.081 30.832 157.1 36.1132C158.2 38.9751 159.525 41.7767 159.93 44.875C160.071 45.917 159.999 46.9771 159.718 47.99C159.437 49.0029 158.953 49.9472 158.295 50.7647C157.71 51.5517 157.084 52.3071 156.421 53.0281C153.721 55.9001 153.626 59.1191 155.071 62.5845C155.191 62.8612 155.281 63.1529 155.381 63.4345L155.171 63.5603ZM96.9848 85.6306L96.8449 85.53C96.7549 84.9516 96.8449 84.1167 96.5299 83.8501C95.7916 83.3706 94.9838 83.0091 94.1353 82.7788C94.0181 82.7549 93.8969 82.7609 93.7825 82.796C93.6682 82.8311 93.5644 82.8943 93.4804 82.9799C93.4428 83.0925 93.4327 83.2125 93.451 83.3298C93.4693 83.4472 93.5154 83.5583 93.5854 83.6539C93.8479 83.9665 94.1524 84.2408 94.4902 84.4687C96.4899 85.8519 96.3599 88.3114 94.2253 89.4984C93.5654 89.8606 92.8255 90.0718 92.1606 90.4289C91.8647 90.6477 91.602 90.9087 91.3807 91.2035C91.7207 91.3896 92.0856 91.7618 92.4056 91.7065C93.0929 91.6144 93.7484 91.3582 94.3172 90.9592C94.886 90.5602 95.3516 90.03 95.6751 89.4129C96.3349 88.2812 96.5649 86.9031 96.9848 85.6306ZM135.214 85.9123H134.994V88.8194H135.214V85.9123Z" fill="#ffc107"/>
</g>
<defs>
<clipPath id="clip0_112_23">
<rect width="160" height="94" fill="white"/>
</clipPath>
</defs>
</svg>
